C:\GBW_MyPrograms\KinderuniversiteitApp\Resultaten\mars_sim2\Aarde\Aarde_v1.mot
version=1
nRows=6
nColumns=29
inDegrees=yes
endheader
                time	         pelvis_tilt	           pelvis_tx	           pelvis_ty	       hip_flexion_l	       hip_flexion_r	        knee_angle_l	        knee_angle_r	       ankle_angle_l	       ankle_angle_r	    lumbar_extension	hamstrings_r/activation	bifemsh_r/activation	glut_max_r/activation	iliopsoas_r/activation	rect_fem_r/activation	  vasti_r/activation	gastroc_r/activation	 soleus_r/activation	tib_ant_r/activation	hamstrings_l/activation	bifemsh_l/activation	glut_max_l/activation	iliopsoas_l/activation	rect_fem_l/activation	  vasti_l/activation	gastroc_l/activation	 soleus_l/activation	tib_ant_l/activation	
          1.38794886	         -8.16503024	          1.83134600	          0.89554612	         31.68826791	         -8.85958791	        -12.54673063	        -11.00677503	         10.61111129	          3.84830059	          0.96531788	          0.06614045	          0.15869636	          0.08762466	          0.72653555	          0.23121904	          0.06948097	          0.22299120	          0.26603798	          0.05209228	          0.32215035	          0.12063272	          0.15759396	          0.08620995	          0.11024391	          0.08971118	          0.07776347	          0.08004700	          0.32947674	
          1.39720185	         -8.21291241	          1.84619738	          0.89456346	         31.07480623	         -8.60327505	        -12.28653632	        -13.03619920	         10.52598912	          3.06723870	          1.32466958	          0.06711247	          0.14351142	          0.09016545	          0.67899834	          0.20596490	          0.06562543	          0.19366378	          0.23311876	          0.05168472	          0.30583073	          0.14802666	          0.16233551	          0.07735652	          0.09837274	          0.11420678	          0.07702394	          0.07443013	          0.35213682	
          1.40645484	         -8.25854314	          1.86120803	          0.89349984	         30.42097753	         -8.13202031	        -12.61271484	        -15.45196950	         10.35299722	          2.15901337	          1.70380553	          0.07355767	          0.13018283	          0.09844232	          0.60419992	          0.18303851	          0.06294452	          0.16814109	          0.20255448	          0.05144088	          0.27066506	          0.16481989	          0.18375192	          0.06922219	          0.08742005	          0.15163661	          0.08756060	          0.08297527	          0.32121514	
          1.41570784	         -8.30315515	          1.87622008	          0.89249128	         29.69513528	         -7.44189280	        -13.01825781	        -18.20697640	         10.23161969	          0.99529658	          2.08377950	          0.07359658	          0.11867809	          0.10801020	          0.53509456	          0.16744817	          0.06939627	          0.14599975	          0.17576996	          0.05615754	          0.23679753	          0.17183526	          0.21612799	          0.06217032	          0.07828778	          0.20195247	          0.07841818	          0.07354616	          0.38429626	
          1.42496083	         -8.34906481	          1.89096497	          0.89176214	         28.98729277	         -6.53769595	        -13.39927847	        -21.22725397	         10.00771055	         -0.44342650	          2.43238015	          0.07351864	          0.11057184	          0.09590196	          0.46881232	          0.16014605	          0.06698767	          0.12687847	          0.15251361	          0.25498178	          0.20719601	          0.15997199	          0.25891943	          0.05610078	          0.07223493	          0.27517701	          0.07215919	          0.06892887	          0.38834815	
          1.43421382	         -8.39634069	          1.90521039	          0.89138564	         28.37316187	         -5.45868788	        -13.89237039	        -24.38220340	          9.87162710	         -1.61334466	          2.72003553	          0.07343097	          0.11104303	          0.08439320	          0.41079327	          0.23206266	          0.06030473	          0.11176532	          0.13274222	          0.23820801	          0.18139877	          0.14967215	          0.27051457	          0.05476038	          0.07128907	          0.33691235	          0.06719911	          0.06495931	          0.40550754	
